<svg width="24" height="24" viewBox="0 0 24 24" fill="none" xmlns="http://www.w3.org/2000/svg">
<path d="M13 20H9V8H13V10C13.8526 8.91525 15.1456 8.26857 16.525 8.237C19.0056 8.25077 21.0072 10.2694 21 12.75V20H17V13.25C16.84 12.1326 15.8818 11.3036 14.753 11.306C14.2593 11.3216 13.7932 11.5378 13.4624 11.9046C13.1316 12.2715 12.9646 12.7573 13 13.25V20ZM7 20H3V8H7V20ZM5 6C3.89543 6 3 5.10457 3 4C3 2.89543 3.89543 2 5 2C6.10457 2 7 2.89543 7 4C7 4.53043 6.78929 5.03914 6.41421 5.41421C6.03914 5.78929 5.53043 6 5 6Z" fill="#2E3A59"/>
</svg>
