<svg width="229" height="84" viewBox="0 0 229 84" fill="none" xmlns="http://www.w3.org/2000/svg">
<path d="M23.3245 45.6937L8.8519 12.6227L41.0247 28.3114L28.3083 33.2367L23.3245 45.6937Z" fill="#5ECB89"/>
<path d="M21.4923 46.4955L23.4072 50.8712L25.1814 46.4366L29.842 34.7875L41.747 30.1764L46.019 28.5217L41.9013 26.5137L9.7285 10.825L4.83855 8.44048L7.01967 13.4245L21.4923 46.4955Z" stroke="white" stroke-opacity="0.1" stroke-width="4"/>
<path d="M32 43C32 39.134 35.134 36 39 36H205C218.255 36 229 46.7452 229 60C229 73.2548 218.255 84 205 84H55C42.2974 84 32 73.7025 32 61V43Z" fill="#5ECB89"/>
<path d="M60.389 64.669H65.219V67H57.449V52.342H60.389V64.669ZM77.9027 60.931C77.9027 61.351 77.8747 61.729 77.8187 62.065H69.3137C69.3837 62.905 69.6777 63.563 70.1957 64.039C70.7137 64.515 71.3507 64.753 72.1067 64.753C73.1987 64.753 73.9757 64.284 74.4377 63.346H77.6087C77.2727 64.466 76.6287 65.39 75.6767 66.118C74.7247 66.832 73.5557 67.189 72.1697 67.189C71.0497 67.189 70.0417 66.944 69.1457 66.454C68.2637 65.95 67.5707 65.243 67.0667 64.333C66.5767 63.423 66.3317 62.373 66.3317 61.183C66.3317 59.979 66.5767 58.922 67.0667 58.012C67.5567 57.102 68.2427 56.402 69.1247 55.912C70.0067 55.422 71.0217 55.177 72.1697 55.177C73.2757 55.177 74.2627 55.415 75.1307 55.891C76.0127 56.367 76.6917 57.046 77.1677 57.928C77.6577 58.796 77.9027 59.797 77.9027 60.931ZM74.8577 60.091C74.8437 59.335 74.5707 58.733 74.0387 58.285C73.5067 57.823 72.8557 57.592 72.0857 57.592C71.3577 57.592 70.7417 57.816 70.2377 58.264C69.7477 58.698 69.4467 59.307 69.3347 60.091H74.8577ZM83.4716 57.781V63.409C83.4716 63.801 83.5626 64.088 83.7446 64.27C83.9406 64.438 84.2626 64.522 84.7106 64.522H86.0756V67H84.2276C81.7496 67 80.5106 65.796 80.5106 63.388V57.781H79.1246V55.366H80.5106V52.489H83.4716V55.366H86.0756V57.781H83.4716ZM107.642 55.198C109.07 55.198 110.218 55.639 111.086 56.521C111.968 57.389 112.409 58.607 112.409 60.175V67H109.469V60.574C109.469 59.664 109.238 58.971 108.776 58.495C108.314 58.005 107.684 57.76 106.886 57.76C106.088 57.76 105.451 58.005 104.975 58.495C104.513 58.971 104.282 59.664 104.282 60.574V67H101.342V60.574C101.342 59.664 101.111 58.971 100.649 58.495C100.187 58.005 99.5571 57.76 98.7591 57.76C97.9471 57.76 97.3031 58.005 96.8271 58.495C96.3651 58.971 96.1341 59.664 96.1341 60.574V67H93.1941V55.366H96.1341V56.773C96.5121 56.283 96.9951 55.898 97.5831 55.618C98.1851 55.338 98.8431 55.198 99.5571 55.198C100.467 55.198 101.279 55.394 101.993 55.786C102.707 56.164 103.26 56.71 103.652 57.424C104.03 56.752 104.576 56.213 105.29 55.807C106.018 55.401 106.802 55.198 107.642 55.198ZM126.014 60.931C126.014 61.351 125.986 61.729 125.93 62.065H117.425C117.495 62.905 117.789 63.563 118.307 64.039C118.825 64.515 119.462 64.753 120.218 64.753C121.31 64.753 122.087 64.284 122.549 63.346H125.72C125.384 64.466 124.74 65.39 123.788 66.118C122.836 66.832 121.667 67.189 120.281 67.189C119.161 67.189 118.153 66.944 117.257 66.454C116.375 65.95 115.682 65.243 115.178 64.333C114.688 63.423 114.443 62.373 114.443 61.183C114.443 59.979 114.688 58.922 115.178 58.012C115.668 57.102 116.354 56.402 117.236 55.912C118.118 55.422 119.133 55.177 120.281 55.177C121.387 55.177 122.374 55.415 123.242 55.891C124.124 56.367 124.803 57.046 125.279 57.928C125.769 58.796 126.014 59.797 126.014 60.931ZM122.969 60.091C122.955 59.335 122.682 58.733 122.15 58.285C121.618 57.823 120.967 57.592 120.197 57.592C119.469 57.592 118.853 57.816 118.349 58.264C117.859 58.698 117.558 59.307 117.446 60.091H122.969ZM139.716 55.198C140.598 55.198 141.382 55.394 142.068 55.786C142.754 56.164 143.286 56.731 143.664 57.487C144.056 58.229 144.252 59.125 144.252 60.175V67H141.312V60.574C141.312 59.65 141.081 58.943 140.619 58.453C140.157 57.949 139.527 57.697 138.729 57.697C137.917 57.697 137.273 57.949 136.797 58.453C136.335 58.943 136.104 59.65 136.104 60.574V67H133.164V51.46H136.104V56.815C136.482 56.311 136.986 55.919 137.616 55.639C138.246 55.345 138.946 55.198 139.716 55.198ZM157.863 60.931C157.863 61.351 157.835 61.729 157.779 62.065H149.274C149.344 62.905 149.638 63.563 150.156 64.039C150.674 64.515 151.311 64.753 152.067 64.753C153.159 64.753 153.936 64.284 154.398 63.346H157.569C157.233 64.466 156.589 65.39 155.637 66.118C154.685 66.832 153.516 67.189 152.13 67.189C151.01 67.189 150.002 66.944 149.106 66.454C148.224 65.95 147.531 65.243 147.027 64.333C146.537 63.423 146.292 62.373 146.292 61.183C146.292 59.979 146.537 58.922 147.027 58.012C147.517 57.102 148.203 56.402 149.085 55.912C149.967 55.422 150.982 55.177 152.13 55.177C153.236 55.177 154.223 55.415 155.091 55.891C155.973 56.367 156.652 57.046 157.128 57.928C157.618 58.796 157.863 59.797 157.863 60.931ZM154.818 60.091C154.804 59.335 154.531 58.733 153.999 58.285C153.467 57.823 152.816 57.592 152.046 57.592C151.318 57.592 150.702 57.816 150.198 58.264C149.708 58.698 149.407 59.307 149.295 60.091H154.818ZM162.949 51.46V67H160.009V51.46H162.949ZM168.793 57.046C169.171 56.514 169.689 56.073 170.347 55.723C171.019 55.359 171.782 55.177 172.636 55.177C173.63 55.177 174.526 55.422 175.324 55.912C176.136 56.402 176.773 57.102 177.235 58.012C177.711 58.908 177.949 59.951 177.949 61.141C177.949 62.331 177.711 63.388 177.235 64.312C176.773 65.222 176.136 65.929 175.324 66.433C174.526 66.937 173.63 67.189 172.636 67.189C171.782 67.189 171.026 67.014 170.368 66.664C169.724 66.314 169.199 65.873 168.793 65.341V72.544H165.853V55.366H168.793V57.046ZM174.946 61.141C174.946 60.441 174.799 59.839 174.505 59.335C174.225 58.817 173.847 58.425 173.371 58.159C172.909 57.893 172.405 57.76 171.859 57.76C171.327 57.76 170.823 57.9 170.347 58.18C169.885 58.446 169.507 58.838 169.213 59.356C168.933 59.874 168.793 60.483 168.793 61.183C168.793 61.883 168.933 62.492 169.213 63.01C169.507 63.528 169.885 63.927 170.347 64.207C170.823 64.473 171.327 64.606 171.859 64.606C172.405 64.606 172.909 64.466 173.371 64.186C173.847 63.906 174.225 63.507 174.505 62.989C174.799 62.471 174.946 61.855 174.946 61.141ZM186.392 67.147C185.86 67.147 185.419 66.986 185.069 66.664C184.733 66.328 184.565 65.915 184.565 65.425C184.565 64.935 184.733 64.529 185.069 64.207C185.419 63.871 185.86 63.703 186.392 63.703C186.91 63.703 187.337 63.871 187.673 64.207C188.009 64.529 188.177 64.935 188.177 65.425C188.177 65.915 188.009 66.328 187.673 66.664C187.337 66.986 186.91 67.147 186.392 67.147ZM186.392 58.453C185.86 58.453 185.419 58.292 185.069 57.97C184.733 57.634 184.565 57.221 184.565 56.731C184.565 56.241 184.733 55.835 185.069 55.513C185.419 55.177 185.86 55.009 186.392 55.009C186.91 55.009 187.337 55.177 187.673 55.513C188.009 55.835 188.177 56.241 188.177 56.731C188.177 57.221 188.009 57.634 187.673 57.97C187.337 58.292 186.91 58.453 186.392 58.453ZM195.73 52.342C197.27 52.342 198.621 52.643 199.783 53.245C200.959 53.847 201.862 54.708 202.492 55.828C203.136 56.934 203.458 58.222 203.458 59.692C203.458 61.162 203.136 62.45 202.492 63.556C201.862 64.648 200.959 65.495 199.783 66.097C198.621 66.699 197.27 67 195.73 67H190.606V52.342H195.73ZM195.625 64.501C197.165 64.501 198.355 64.081 199.195 63.241C200.035 62.401 200.455 61.218 200.455 59.692C200.455 58.166 200.035 56.976 199.195 56.122C198.355 55.254 197.165 54.82 195.625 54.82H193.546V64.501H195.625Z" fill="white"/>
<path d="M32.5 43C32.5 39.4101 35.4101 36.5 39 36.5H205C217.979 36.5 228.5 47.0213 228.5 60C228.5 72.9787 217.979 83.5 205 83.5H55C42.5736 83.5 32.5 73.4264 32.5 61V43Z" stroke="white" stroke-opacity="0.1"/>
</svg>
