<svg width="24" height="24" viewBox="0 0 24 24" fill="none" xmlns="http://www.w3.org/2000/svg">
<path d="M22.1084 15.0317C21.9811 14.999 21.8486 14.9917 21.7185 15.0103C21.5884 15.029 21.4632 15.0731 21.3503 15.1403C21.2373 15.2074 21.1387 15.2963 21.0601 15.4016C20.9816 15.507 20.9247 15.6269 20.8926 15.7544C20.7095 16.4607 20.2751 17.0761 19.6709 17.4851C19.0666 17.8941 18.3339 18.0688 17.6101 17.9763C16.8863 17.8838 16.221 17.5306 15.739 16.9828C15.257 16.4349 14.9913 15.7301 14.9917 15.0005V14.0005H21.9917C22.123 14.0005 22.2531 13.9746 22.3744 13.9244C22.4958 13.8742 22.606 13.8005 22.6989 13.7076C22.7917 13.6148 22.8654 13.5045 22.9156 13.3832C22.9659 13.2618 22.9917 13.1318 22.9917 13.0005C22.9917 12.3438 22.8624 11.6937 22.6111 11.087C22.3598 10.4804 21.9915 9.92921 21.5272 9.46492C21.0629 9.00062 20.5117 8.63233 19.9051 8.38105C19.2985 8.12978 18.6483 8.00045 17.9917 8.00045C17.3351 8.00045 16.6849 8.12978 16.0783 8.38105C15.4717 8.63233 14.9205 9.00062 14.4562 9.46492C13.9919 9.92921 13.6236 10.4804 13.3723 11.087C13.121 11.6937 12.9917 12.3438 12.9917 13.0005V15.0005C12.9913 16.2176 13.435 17.3931 14.2397 18.3064C15.0443 19.2197 16.1545 19.8079 17.3621 19.9609C18.5696 20.1138 19.7914 19.8209 20.7983 19.137C21.8052 18.4531 22.528 17.4254 22.8311 16.2465C22.8634 16.1193 22.8704 15.987 22.8516 15.857C22.8328 15.7271 22.7886 15.6022 22.7215 15.4893C22.6544 15.3765 22.5657 15.278 22.4605 15.1995C22.3553 15.121 22.2357 15.064 22.1084 15.0317ZM17.9917 10.0004C18.7851 10.0008 19.5463 10.3141 20.1099 10.8725C20.4228 11.1926 20.6614 11.5777 20.8085 12.0004H15.176C15.3814 11.4172 15.7624 10.9118 16.2665 10.5537C16.7707 10.1956 17.3733 10.0024 17.9917 10.0004ZM15.9917 7.00045H19.9917C20.2569 7.00045 20.5113 6.89509 20.6988 6.70756C20.8863 6.52002 20.9917 6.26567 20.9917 6.00045C20.9917 5.73523 20.8863 5.48088 20.6988 5.29334C20.5113 5.10581 20.2569 5.00045 19.9917 5.00045H15.9917C15.7265 5.00045 15.4721 5.10581 15.2846 5.29334C15.0971 5.48088 14.9917 5.73523 14.9917 6.00045C14.9917 6.26567 15.0971 6.52002 15.2846 6.70756C15.4721 6.89509 15.7265 7.00045 15.9917 7.00045ZM9.9097 11.7176C10.4434 11.1499 10.799 10.4383 10.9327 9.67073C11.0663 8.90314 10.9721 8.1132 10.6617 7.39857C10.3512 6.68394 9.83816 6.07595 9.18592 5.64974C8.53368 5.22354 7.77084 4.99781 6.9917 5.00045H1.9917C1.86037 5.00041 1.73032 5.02626 1.60897 5.0765C1.48763 5.12674 1.37738 5.2004 1.28451 5.29326C1.19165 5.38613 1.11799 5.49638 1.06775 5.61772C1.01751 5.73907 0.991664 5.86912 0.991699 6.00045V19.0005C0.991665 19.1318 1.01751 19.2618 1.06775 19.3832C1.11799 19.5045 1.19165 19.6148 1.28452 19.7076C1.37738 19.8005 1.48763 19.8742 1.60898 19.9244C1.73032 19.9746 1.86037 20.0005 1.9917 20.0005H7.4917C8.46484 20.0022 9.41222 19.6879 10.1913 19.1048C10.9704 18.5217 11.5391 17.7014 11.8118 16.7673C12.0845 15.8331 12.0465 14.8357 11.7035 13.925C11.3604 13.0143 10.7309 12.2397 9.9097 11.7176ZM2.9917 7.00045H6.9917C7.52213 7.00045 8.03084 7.21116 8.40591 7.58624C8.78099 7.96131 8.9917 8.47002 8.9917 9.00045C8.9917 9.53088 8.78099 10.0396 8.40591 10.4147C8.03084 10.7897 7.52213 11.0004 6.9917 11.0004H2.9917V7.00045ZM7.4917 18.0005H2.9917V13.0005H7.4917C8.15474 13.0005 8.79063 13.2638 9.25947 13.7327C9.72831 14.2015 9.9917 14.8374 9.9917 15.5005C9.9917 16.1635 9.72831 16.7994 9.25947 17.2682C8.79063 17.7371 8.15474 18.0005 7.4917 18.0005Z" fill="black"/>
</svg>
