<svg width="24" height="24" viewBox="0 0 24 24" fill="none" xmlns="http://www.w3.org/2000/svg">
<path d="M20.7804 11.4697L18.8049 9.49415C18.7874 9.47673 18.7736 9.45603 18.7642 9.43324C18.7548 9.41046 18.75 9.38604 18.7501 9.3614V4.49985C18.7501 4.30094 18.6711 4.11017 18.5304 3.96952C18.3898 3.82886 18.199 3.74985 18.0001 3.74985H15.0001C14.8011 3.74985 14.6104 3.82886 14.4697 3.96952C14.3291 4.11017 14.25 4.30094 14.25 4.49985C14.2499 4.53578 14.2392 4.57088 14.2192 4.60074C14.1993 4.6306 14.1709 4.65389 14.1377 4.66767C14.1045 4.68146 14.068 4.68513 14.0328 4.67822C13.9975 4.67131 13.9651 4.65414 13.9395 4.62885L12.5303 3.21959C12.3896 3.07899 12.1989 3 12 3C11.8011 3 11.6104 3.07899 11.4697 3.21959L3.21959 11.4697C3.11474 11.5746 3.04333 11.7082 3.0144 11.8536C2.98548 11.9991 3.00033 12.1499 3.05708 12.2869C3.11384 12.4239 3.20994 12.5411 3.33325 12.6235C3.45656 12.7059 3.60154 12.7499 3.74985 12.7499H4.68737C4.7371 12.7499 4.78479 12.7697 4.81996 12.8048C4.85512 12.84 4.87487 12.8877 4.87487 12.9374V20.25C4.87487 20.4489 4.95389 20.6397 5.09455 20.7803C5.2352 20.921 5.42597 21 5.62489 21H18.3751C18.574 21 18.7648 20.921 18.9055 20.7803C19.0461 20.6397 19.1251 20.4489 19.1251 20.25V12.9374C19.1251 12.8877 19.1449 12.84 19.18 12.8048C19.2152 12.7697 19.2629 12.7499 19.3126 12.7499H20.2501C20.3985 12.7499 20.5434 12.7059 20.6667 12.6235C20.7901 12.5411 20.8862 12.4239 20.9429 12.2869C20.9997 12.1499 21.0145 11.9991 20.9856 11.8536C20.9567 11.7082 20.8853 11.5746 20.7804 11.4697ZM17.6251 11.9999V19.3125C17.6251 19.3622 17.6053 19.4099 17.5702 19.4451C17.535 19.4802 17.4873 19.5 17.4376 19.5H6.5624C6.51267 19.5 6.46498 19.4802 6.42982 19.4451C6.39465 19.4099 6.3749 19.3622 6.3749 19.3125V11.9999C6.37683 11.8471 6.33055 11.6975 6.24263 11.5724C6.15472 11.4473 6.02963 11.3531 5.88514 11.3032C5.85543 11.2925 5.82891 11.2744 5.80803 11.2507C5.78715 11.227 5.77259 11.1984 5.76571 11.1676C5.75883 11.1368 5.75984 11.1047 5.76866 11.0744C5.77747 11.0441 5.79381 11.0165 5.81614 10.9942L11.8672 4.94311C11.8847 4.92565 11.9054 4.91179 11.9281 4.90234C11.9509 4.89289 11.9753 4.88802 12 4.88802C12.0247 4.88802 12.0491 4.89289 12.0719 4.90234C12.0946 4.91179 12.1153 4.92565 12.1328 4.94311L14.4698 7.28013C14.5747 7.38499 14.7083 7.45639 14.8538 7.48532C14.9992 7.51424 15.15 7.49939 15.287 7.44264C15.4241 7.38588 15.5412 7.28978 15.6236 7.16647C15.706 7.04316 15.75 6.89819 15.7501 6.74987V5.43736C15.7501 5.38763 15.7698 5.33994 15.805 5.30478C15.8401 5.26961 15.8878 5.24986 15.9376 5.24986H17.0626C17.1123 5.24986 17.16 5.26961 17.1952 5.30478C17.2303 5.33994 17.2501 5.38763 17.2501 5.43736V9.7499C17.2501 9.9488 17.3292 10.1395 17.4698 10.2802L18.1839 10.9942C18.2062 11.0165 18.2225 11.0441 18.2313 11.0744C18.2402 11.1047 18.2412 11.1368 18.2343 11.1676C18.2274 11.1984 18.2129 11.227 18.192 11.2507C18.1711 11.2744 18.1446 11.2925 18.1149 11.3032C17.9705 11.3533 17.8455 11.4476 17.7577 11.5726C17.6698 11.6976 17.6234 11.8471 17.6251 11.9999V11.9999Z" fill="black" stroke="black" stroke-width="0.5"/>
</svg>
