<svg width="24" height="24" viewBox="0 0 24 24" fill="none" xmlns="http://www.w3.org/2000/svg">
<path d="M20.5044 15.7436C19.8926 15.4819 19.3714 15.0458 19.006 14.4896C18.6405 13.9335 18.4471 13.282 18.4497 12.6166C18.4576 12.0226 18.6167 11.4404 18.9119 10.9249C19.2072 10.4095 19.6289 9.97768 20.1372 9.67031C20.2522 9.59924 20.3516 9.50558 20.4294 9.395C20.5072 9.28441 20.5618 9.15921 20.5898 9.02694C20.6178 8.89467 20.6187 8.7581 20.5925 8.62547C20.5662 8.49284 20.5133 8.36692 20.437 8.25531C19.98 7.59078 19.3843 7.03332 18.6909 6.62143C17.9976 6.20954 17.2231 5.95302 16.4209 5.86958C17.1675 4.68472 17.5063 3.28827 17.3857 1.893C17.3622 1.63964 17.2414 1.40525 17.0488 1.23902C16.8562 1.07278 16.6066 0.987616 16.3525 1.0014C14.6355 1.15444 13.0438 1.96429 11.9092 3.26214C11.19 4.09552 10.6824 5.09014 10.4297 6.16155C9.9075 5.98484 9.3608 5.89125 8.80957 5.88421C7.78905 5.91313 6.79333 6.20525 5.91893 6.73223C5.04453 7.25921 4.32112 8.00318 3.81885 8.892C1.93115 12.1693 3.08594 17.0805 5.13085 20.0365C5.95116 21.2211 7.18212 22.9994 9.03905 22.9994C9.07567 22.9994 9.11278 22.9994 9.14989 22.9974C9.77207 22.9621 10.3812 22.8045 10.9424 22.5336C11.3906 22.3063 11.8852 22.1854 12.3877 22.18C12.8603 22.1858 13.325 22.3015 13.7451 22.5179C14.359 22.8084 15.028 22.9639 15.707 22.974C17.6201 22.9378 18.75 21.2875 19.5752 20.0814C20.2263 19.1234 20.7358 18.0765 21.0879 16.973C21.1629 16.7323 21.1446 16.4721 21.0364 16.2442C20.9283 16.0164 20.7384 15.8377 20.5044 15.7436ZM13.4233 4.56782C13.9486 3.98032 14.6067 3.52695 15.3428 3.24556C15.1817 4.0378 14.8254 4.77728 14.3061 5.39692C13.9537 5.8198 13.5249 6.17262 13.042 6.437L13.0391 6.438C13.0107 6.44972 12.9824 6.46046 12.9541 6.47218C12.7675 6.54542 12.5371 6.63624 12.3593 6.69483C12.531 5.90816 12.8968 5.17694 13.4233 4.56782ZM17.9248 18.9526C17.1211 20.1264 16.4888 20.9594 15.6704 20.9741C15.2748 20.9728 14.8858 20.8724 14.5391 20.6821C13.8687 20.3554 13.1334 20.1839 12.3877 20.1801C11.6161 20.184 10.8549 20.3591 10.1592 20.6928C9.82091 20.8655 9.45187 20.9697 9.07324 20.9994H9.04346C8.23046 20.9994 7.35596 19.7367 6.77539 18.8978C5.32275 16.7982 3.98291 12.6146 5.55225 9.89003C5.88133 9.30044 6.35724 8.80593 6.93378 8.45448C7.51032 8.10304 8.16792 7.9066 8.84277 7.88423L8.87646 7.88323C9.44574 7.93161 10.0017 8.08213 10.5176 8.32757C10.6489 8.37932 10.7783 8.43108 10.9067 8.47893C10.9394 8.49261 10.9731 8.5053 11.0073 8.51604C11.3632 8.65917 11.7412 8.73947 12.1245 8.75335C12.6673 8.71022 13.1974 8.56754 13.6885 8.33245C14.3808 7.99648 15.1417 7.82629 15.9112 7.83538C16.7342 7.86758 17.5243 8.16723 18.1616 8.6889C17.6169 9.19077 17.1832 9.80104 16.8884 10.4805C16.5936 11.16 16.4442 11.8936 16.4497 12.6342V12.6352C16.4441 13.5318 16.666 14.4152 17.0947 15.2028C17.5234 15.9903 18.1448 16.6562 18.9009 17.1381C18.6376 17.7744 18.3106 18.3823 17.9248 18.9526Z" fill="black"/>
</svg>
