<?xml version="1.0" encoding="utf-8"?>
<!-- Generator: Adobe Illustrator 19.2.1, SVG Export Plug-In . SVG Version: 6.00 Build 0)  -->
<svg version="1.1" xmlns="http://www.w3.org/2000/svg" xmlns:xlink="http://www.w3.org/1999/xlink" x="0px" y="0px" width="24px"
	 height="24px" viewBox="0 0 24 24" enable-background="new 0 0 24 24" xml:space="preserve">
<g id="Filled_Icon">
	<path d="M21.5,2h-19C1.121,2,0,3.121,0,4.5V7h24V4.5C24,3.121,22.879,2,21.5,2z M4,6C3.449,6,3,5.552,3,5s0.449-1,1-1s1,0.448,1,1
		S4.551,6,4,6z M7,6C6.449,6,6,5.552,6,5s0.449-1,1-1s1,0.448,1,1S7.551,6,7,6z M10,6C9.449,6,9,5.552,9,5s0.449-1,1-1s1,0.448,1,1
		S10.551,6,10,6z"/>
	<g>
		<path d="M20,12h-2v2h2C20.658,14,20.658,12,20,12z"/>
		<path d="M0,8v10.5C0,19.879,1.121,21,2.5,21h19c1.379,0,2.5-1.121,2.5-2.5V8H0z M7,16.5C7,16.776,6.776,17,6.5,17S6,16.776,6,16.5
			V15H4v1.5C4,16.776,3.776,17,3.5,17S3,16.776,3,16.5v-5C3,11.224,3.224,11,3.5,11S4,11.224,4,11.5V14h2v-2.5
			C6,11.224,6.224,11,6.5,11S7,11.224,7,11.5V16.5z M11,12h-1v4.5c0,0.276-0.224,0.5-0.5,0.5S9,16.776,9,16.5V12H8
			c-0.276,0-0.5-0.224-0.5-0.5S7.724,11,8,11h3c0.276,0,0.5,0.224,0.5,0.5S11.276,12,11,12z M16,12h-1v4.5
			c0,0.276-0.224,0.5-0.5,0.5S14,16.776,14,16.5V12h-1c-0.276,0-0.5-0.224-0.5-0.5S12.724,11,13,11h3c0.276,0,0.5,0.224,0.5,0.5
			S16.276,12,16,12z M20,15h-2v1.5c0,0.276-0.224,0.5-0.5,0.5S17,16.776,17,16.5c0-1.736,0-3.258,0-5c0-0.276,0.224-0.5,0.5-0.5H20
			C22.002,11,22,15,20,15z"/>
	</g>
</g>
<g id="Invisible_Shape">
	<rect fill="none" width="24" height="24"/>
</g>
</svg>
