<svg width="512" height="512" viewBox="0 0 512 512" fill="none" xmlns="http://www.w3.org/2000/svg">
<rect width="512" height="512" fill="#F8F0ED"/>
<path d="M403.65 259.389C403.65 254.878 401.783 250.872 398.05 247.372C394.317 243.794 389.339 240.994 383.117 238.972C376.894 236.872 370.089 235.822 362.7 235.822H315.683C312.417 235.822 309.928 235.472 308.217 234.772C306.583 233.994 304.794 232.517 302.85 230.339L224.45 144.822C221.883 142.022 218.889 140.622 215.467 140.622H201.933C200.456 140.622 199.328 141.206 198.55 142.372C197.85 143.539 197.889 144.939 198.667 146.572L239.033 235.822L179.767 242.589L158.65 203.856C157.094 201.056 154.45 199.656 150.717 199.656H145.7C144.222 199.656 143.017 200.122 142.083 201.056C141.15 201.911 140.683 203.117 140.683 204.672V314.106C140.683 315.583 141.15 316.789 142.083 317.722C143.017 318.578 144.222 319.006 145.7 319.006H150.717C154.45 319.006 157.094 317.644 158.65 314.922L179.767 276.189L239.033 282.956L198.667 372.206C197.889 373.839 197.85 375.239 198.55 376.406C199.328 377.572 200.456 378.156 201.933 378.156H215.467C218.889 378.156 221.883 376.756 224.45 373.956L302.85 288.322C304.794 286.144 306.583 284.706 308.217 284.006C309.928 283.306 312.417 282.956 315.683 282.956H362.7C370.089 282.956 376.894 281.944 383.117 279.922C389.339 277.822 394.317 275.022 398.05 271.522C401.783 267.944 403.65 263.9 403.65 259.389Z" fill="#6C3928"/>
</svg>
